<svg xmlns="http://www.w3.org/2000/svg" viewBox="0 0 662.05 1000"><defs><style>.cls-1{fill:#f2f2eb;}</style></defs><title>Asset 1</title><g id="Layer_2" data-name="Layer 2"><g id="lapicero_fondo" data-name="lapicero fondo"><path class="cls-1" d="M584.89,40.76s-24.55-4.46-43,8.37c-.64.46-257.86,40.06-359.91,339.25-50.92,149.3,127.54,81,78-15.94-2.41-4.71,10.74-70.39,82.62-132.19,62.79-54,93.64-65,93.64-65C361.32,270,214.6,521,213.84,521.17c-6.14,1.68-29.57,12.84-24.55,39.06.61,3.2-146.75,255-175.2,354.87C.36,963.29,6.84,961.41,6.84,961.41l-6.7,29s-2.23,14.51,11.16,7.81c10.8-5.39,14.51-8.92,26.22-18.41.62-.49,8.5,1.59,34.6-19,63-49.66,180.22-183.57,268.94-310.23.45-.64,27.34,7.26,22.87-29.57-1.21-10,256.67-337,285.12-505a81.39,81.39,0,0,0-1.67-35.15l-7.25-6.14,18.41-30.69s10.6-16.18-5-26.22S627.85,2.26,627.85,2.26,613.34-5.55,603.3,7.84,584.89,40.76,584.89,40.76Z"/></g></g></svg>