<svg xmlns="http://www.w3.org/2000/svg" viewBox="0 0 1719.66 973"><defs><style>.cls-1,.cls-2{fill:none;stroke-miterlimit:10;stroke-width:2px;}.cls-1{stroke:#729df2;}.cls-2{stroke:#f25757;}</style></defs><title>Asset 2</title><g id="Layer_2" data-name="Layer 2"><g id="reglones"><line class="cls-1" y1="214" x2="1719.66" y2="214"/><line class="cls-1" y1="248" x2="1719.66" y2="248"/><line class="cls-1" y1="282" x2="1719.66" y2="282"/><line class="cls-1" y1="316" x2="1719.66" y2="316"/><line class="cls-1" y1="350" x2="1719.66" y2="350"/><line class="cls-1" y1="384" x2="1719.66" y2="384"/><line class="cls-1" y1="418" x2="1719.66" y2="418"/><line class="cls-1" y1="452" x2="1719.66" y2="452"/><line class="cls-1" y1="486" x2="1719.66" y2="486"/><line class="cls-1" y1="520" x2="1719.66" y2="520"/><line class="cls-1" y1="554" x2="1719.66" y2="554"/><line class="cls-1" y1="588" x2="1719.66" y2="588"/><line class="cls-1" y1="622" x2="1719.66" y2="622"/><line class="cls-1" y1="656" x2="1719.66" y2="656"/><line class="cls-1" y1="690" x2="1719.66" y2="690"/><line class="cls-1" y1="724" x2="1719.66" y2="724"/><line class="cls-1" y1="758" x2="1719.66" y2="758"/><line class="cls-1" y1="792" x2="1719.66" y2="792"/><line class="cls-1" y1="826" x2="1719.66" y2="826"/><line class="cls-1" y1="860" x2="1719.66" y2="860"/><line class="cls-1" y1="894" x2="1719.66" y2="894"/><line class="cls-1" y1="928" x2="1719.66" y2="928"/></g><g id="guia_vertical" data-name="guia vertical"><line class="cls-2" x1="136.66" x2="136.66" y2="973"/><line class="cls-2" x1="144.66" x2="144.66" y2="973"/></g></g></svg>